<svg width="190" height="29" viewBox="0 0 190 29" fill="none" xmlns="http://www.w3.org/2000/svg">
<path d="M187.969 1.96052C184.583 1.3587 181.116 1.3587 177.73 1.96052C177.207 2.00958 176.718 2.24147 176.35 2.61518C175.982 2.9889 175.758 3.48038 175.718 4.00277C175.608 5.09603 175.608 6.19754 175.718 7.2908C175.851 8.48552 176.46 9.07267 177.525 9.20031C179.235 9.40453 180.95 9.5577 182.706 9.7364C184.513 9.54239 186.346 9.34837 188.179 9.14415C188.606 9.13562 189.015 8.96975 189.327 8.67847C189.639 8.38719 189.832 7.9911 189.868 7.56651C189.971 6.52315 190.012 5.47469 189.991 4.42654C190.043 3.8337 189.861 3.24411 189.483 2.78345C189.105 2.32279 188.562 2.0275 187.969 1.96052ZM189.182 6.85172C189.182 7.80136 188.824 8.1945 187.877 8.30682C186.141 8.51615 184.406 8.67443 182.706 8.85312C181.058 8.68464 179.46 8.53658 177.868 8.34256C177.686 8.34915 177.505 8.31698 177.337 8.2482C177.168 8.17942 177.016 8.07562 176.891 7.94371C176.766 7.8118 176.671 7.65482 176.612 7.48324C176.552 7.31167 176.53 7.12944 176.547 6.94872C176.506 6.03992 176.511 5.13112 176.547 4.22742C176.552 3.86484 176.69 3.51657 176.934 3.24779C177.178 2.97901 177.512 2.80815 177.873 2.76721C181.183 2.19541 184.567 2.19541 187.877 2.76721C188.251 2.80354 188.597 2.98368 188.84 3.26953C189.084 3.55538 189.207 3.92453 189.182 4.2989C189.203 5.17196 189.203 6.00929 189.182 6.85172Z" fill="#0C1E2B"/>
<path d="M41.5197 0H40.9258V29H41.5197V0Z" fill="#0C1E2B"/>
<path d="M74.5098 5.94299L67.1121 19.912L59.7195 5.94299H56.3149V22.2198H58.2348V7.85761H58.5624L66.165 22.2198H68.0643L75.6668 7.85761H75.9945V22.2198H77.9143V5.94299H74.5098Z" fill="#0C1E2B"/>
<path d="M87.5748 5.94299L80.085 22.2198H82.1993L83.8171 18.7122H95.5613L97.174 22.2198H99.2884L91.7985 5.94299H87.5748ZM84.6977 16.7925L88.7933 7.85761H90.5544L94.6501 16.7925H84.6977Z" fill="#0C1E2B"/>
<path d="M118.738 20.3051H118.098L104.859 5.94299H101.454V22.2198H103.379V7.85761H103.922L117.253 22.2198H120.658V5.94299H118.738V20.3051Z" fill="#0C1E2B"/>
<path d="M125.997 8.58769C126.01 8.35877 126.106 8.14246 126.269 7.98035C126.431 7.81825 126.648 7.72179 126.878 7.70952C129.187 7.60741 131.306 7.55124 133.615 7.55124C135.924 7.55124 138.044 7.60741 140.353 7.70952C140.582 7.72261 140.799 7.81885 140.962 7.98012C141.126 8.14147 141.222 8.35837 141.233 8.58769C141.233 9.05741 141.279 9.52712 141.295 10.0019H143.214C143.214 9.49139 143.179 8.98082 143.153 8.47026C143.117 7.76571 142.819 7.09984 142.317 6.60241C141.816 6.10499 141.146 5.81166 140.44 5.77959C138.09 5.67237 135.965 5.61621 133.615 5.61621C131.265 5.61621 129.141 5.67237 126.791 5.77959C126.085 5.81176 125.416 6.10526 124.915 6.6028C124.414 7.10033 124.118 7.76616 124.083 8.47026C124.057 8.98082 124.031 9.49139 124.016 10.0019V12.3454C124.055 13.0477 124.354 13.7104 124.856 14.2049C125.357 14.6994 126.025 14.9902 126.729 15.0208H140.419C140.649 15.0339 140.865 15.1301 141.028 15.2914C141.192 15.4527 141.289 15.6696 141.3 15.899V18.1454C141.3 18.6203 141.264 19.09 141.238 19.5597C141.226 19.7886 141.129 20.0049 140.967 20.167C140.804 20.3291 140.587 20.4256 140.358 20.4379C138.049 20.54 135.929 20.5961 133.62 20.5961C131.311 20.5961 129.192 20.54 126.883 20.4379C126.654 20.4256 126.437 20.3291 126.274 20.167C126.112 20.0049 126.015 19.7886 126.003 19.5597C125.977 19.09 125.956 18.6203 125.941 18.1454H124.021C124.021 18.656 124.062 19.1666 124.088 19.6771C124.123 20.3812 124.42 21.0471 124.92 21.5446C125.421 22.0421 126.09 22.3356 126.796 22.3678C129.146 22.475 131.271 22.5312 133.62 22.5312C135.97 22.5312 138.095 22.475 140.445 22.3678C141.151 22.3357 141.821 22.0424 142.322 21.545C142.824 21.0476 143.122 20.3817 143.158 19.6771C143.158 19.1666 143.204 18.656 143.22 18.1454V15.8173C143.185 15.1132 142.888 14.4473 142.387 13.9498C141.886 13.4523 141.217 13.1588 140.511 13.1266H126.817C126.587 13.1159 126.369 13.0193 126.207 12.856C126.043 12.6952 125.946 12.478 125.936 12.2484V10.0019L125.997 8.58769Z" fill="#0C1E2B"/>
<path d="M148.492 5.94299H146.572V22.2198H148.492V5.94299Z" fill="#0C1E2B"/>
<path d="M169.002 5.83064C166.65 5.72512 164.302 5.67236 161.957 5.67236C159.612 5.67236 157.262 5.72512 154.907 5.83064C154.201 5.8628 153.533 6.15631 153.032 6.65385C152.531 7.15138 152.234 7.81721 152.199 8.52131C152.01 12.2426 152.01 15.9711 152.199 19.6924C152.234 20.3965 152.531 21.0624 153.032 21.5599C153.533 22.0574 154.201 22.3509 154.907 22.3831C157.256 22.4886 159.605 22.5431 161.957 22.5465C164.309 22.5499 166.657 22.4954 169.002 22.3831C169.708 22.351 170.378 22.0577 170.879 21.5603C171.381 21.0629 171.679 20.397 171.715 19.6924C171.899 15.9721 171.899 12.2484 171.715 8.52131C171.678 7.81715 171.379 7.15192 170.878 6.65473C170.377 6.15753 169.708 5.86384 169.002 5.83064ZM169.795 19.6158C169.784 19.8446 169.687 20.061 169.524 20.2225C169.361 20.384 169.144 20.479 168.915 20.4889C166.606 20.5961 164.266 20.6523 161.957 20.6523C159.648 20.6523 157.303 20.5961 154.994 20.4889C154.755 20.481 154.529 20.3806 154.363 20.2091C154.196 20.0377 154.104 19.8084 154.104 19.5699C153.919 15.9132 153.919 12.2495 154.104 8.59279C154.115 8.36399 154.211 8.14765 154.374 7.98615C154.537 7.82464 154.755 7.72963 154.984 7.71972C157.293 7.61251 159.638 7.56145 161.947 7.56145C164.256 7.56145 166.595 7.61251 168.904 7.71972C169.134 7.72963 169.351 7.82464 169.514 7.98615C169.677 8.14765 169.774 8.36399 169.785 8.59279C169.973 12.2493 169.976 15.913 169.795 19.5699V19.6158Z" fill="#0C1E2B"/>
<path d="M179.112 4.23264C179.15 4.20076 179.196 4.18115 179.245 4.17647C179.757 4.17647 180.233 4.14584 180.725 4.14584C181.216 4.14584 181.718 4.14584 182.21 4.17647C182.259 4.17777 182.307 4.19808 182.342 4.23323C182.377 4.26839 182.398 4.31569 182.399 4.36538V4.66662H182.809V4.34496C182.796 4.19798 182.731 4.06046 182.624 3.95806C182.518 3.85566 182.378 3.79538 182.23 3.78845C181.728 3.76802 181.227 3.75781 180.725 3.75781C180.213 3.75781 179.701 3.75781 179.225 3.78845C179.074 3.79587 178.931 3.85903 178.824 3.96567C178.717 4.0723 178.654 4.21477 178.646 4.36538C178.605 5.15793 178.605 5.95206 178.646 6.74461C178.654 6.89523 178.717 7.0377 178.824 7.14433C178.931 7.25096 179.074 7.31412 179.225 7.32155C179.737 7.32155 180.249 7.35218 180.725 7.35218C181.201 7.35218 181.749 7.35218 182.23 7.32155C182.381 7.31412 182.524 7.25096 182.631 7.14433C182.738 7.0377 182.801 6.89523 182.809 6.74461V6.42295V5.91239C182.806 5.76398 182.748 5.62179 182.647 5.51268C182.546 5.40357 182.409 5.33508 182.261 5.32014H180.013V5.73369H182.24C182.288 5.73728 182.333 5.7571 182.368 5.78985C182.404 5.82556 182.426 5.87254 182.43 5.9226V6.39232V6.69355C182.426 6.74127 182.406 6.78632 182.373 6.82119C182.338 6.85654 182.291 6.87822 182.24 6.88246C181.728 6.88246 181.252 6.91309 180.756 6.91309C180.259 6.91309 179.768 6.9131 179.276 6.88246C179.226 6.87822 179.179 6.85654 179.143 6.82119C179.11 6.78632 179.09 6.74127 179.087 6.69355C179.046 5.91463 179.046 5.1341 179.087 4.35517C179.084 4.31279 179.093 4.2705 179.112 4.23264Z" fill="#0C1E2B"/>
<path d="M186.792 5.94801C186.944 5.94434 187.089 5.88337 187.199 5.77732C187.308 5.67127 187.373 5.52799 187.38 5.37618V4.35506C187.372 4.20501 187.307 4.06369 187.199 3.95883C187.091 3.85398 186.947 3.79317 186.797 3.78833H183.536V7.26016H183.945V5.94801H184.969L186.92 7.27037H187.647L185.696 5.94801H186.792ZM183.945 5.53446V4.20699H186.776C186.824 4.21057 186.869 4.2304 186.904 4.26315C186.922 4.28036 186.936 4.30098 186.946 4.32379C186.956 4.3466 186.961 4.37113 186.961 4.3959V5.35576C186.958 5.40371 186.938 5.44904 186.904 5.48299C186.87 5.51694 186.824 5.5371 186.776 5.53956L183.945 5.53446Z" fill="#0C1E2B"/>
<path d="M20.6471 0L14.6829 10.5891C14.6651 10.621 14.6392 10.6476 14.6077 10.6661C14.5762 10.6847 14.5403 10.6944 14.5037 10.6944C14.4671 10.6944 14.4312 10.6847 14.3997 10.6661C14.3682 10.6476 14.3422 10.621 14.3245 10.5891L8.36534 0H0V29L7.08033 18.5947C7.09971 18.5673 7.12541 18.545 7.15526 18.5296C7.1851 18.5141 7.21823 18.5061 7.25184 18.5061C7.28546 18.5061 7.31858 18.5141 7.34843 18.5296C7.37827 18.545 7.40396 18.5673 7.42334 18.5947L14.5037 28.9898L21.5891 18.5947C21.6079 18.5673 21.6332 18.5449 21.6626 18.5295C21.692 18.514 21.7248 18.5059 21.7581 18.5059C21.7914 18.5059 21.8241 18.514 21.8536 18.5295C21.883 18.5449 21.9082 18.5673 21.927 18.5947L29.0125 28.9898V0H20.6471Z" fill="#0C1E2B"/>
</svg>
