<svg width="32" height="39" viewBox="0 0 32 39" fill="none" xmlns="http://www.w3.org/2000/svg">
<path d="M31.5086 0.107446C30.6992 -0.0358152 29.8709 -0.0358152 29.0615 0.107446C28.9367 0.119111 28.82 0.174222 28.7317 0.263163C28.6434 0.352103 28.5891 0.469228 28.5783 0.5941C28.5507 0.855683 28.5507 1.11945 28.5783 1.38103C28.5764 1.49863 28.6204 1.61235 28.7009 1.69805C28.7815 1.78376 28.8923 1.8347 29.0098 1.84007C29.4205 1.89184 29.8312 1.92636 30.2488 1.97123L31.5604 1.82972C31.6622 1.82603 31.7593 1.78552 31.8336 1.7157C31.9078 1.64588 31.9542 1.5515 31.9642 1.45006C31.9899 1.19664 32.0014 0.941989 31.9987 0.687289C32.0093 0.5457 31.9638 0.405622 31.8722 0.297186C31.7805 0.188749 31.65 0.120618 31.5086 0.107446ZM31.7985 1.28094C31.7985 1.50528 31.7122 1.60192 31.4844 1.62608C31.0703 1.6744 30.6561 1.71237 30.2488 1.75724C29.8519 1.71582 29.4722 1.68131 29.0891 1.63644C29.0445 1.63901 28.9998 1.63157 28.9584 1.61467C28.917 1.59777 28.8799 1.57183 28.8498 1.53875C28.8197 1.50568 28.7974 1.46629 28.7844 1.42348C28.7715 1.38066 28.7683 1.3355 28.7751 1.29129C28.7751 1.07385 28.7751 0.852958 28.7751 0.635517C28.7748 0.548568 28.8073 0.464717 28.8662 0.400728C28.9251 0.33674 29.0059 0.297328 29.0926 0.290372C29.8839 0.152312 30.6931 0.152312 31.4844 0.290372C31.5318 0.294089 31.5779 0.307546 31.6198 0.329901C31.6618 0.352256 31.6986 0.383027 31.7281 0.420288C31.7576 0.457548 31.7791 0.500495 31.7912 0.546439C31.8033 0.592383 31.8058 0.640334 31.7985 0.687289C31.802 0.877118 31.802 1.0773 31.7985 1.28094Z" fill="#0C1E2B"/>
<path d="M4.35227 1.06348L2.58168 4.41483L0.814542 1.06348H0V4.97051H0.459043V1.52252H0.534975L2.35734 4.97051H2.80948L4.62839 1.52252H4.70777V4.97051H5.16682V1.06348H4.35227Z" fill="#0C1E2B"/>
<path d="M7.47978 1.06348L5.68848 4.97051H6.19239L6.57895 4.13872H9.39188L9.77844 4.98087H10.2824L8.47725 1.06348H7.47978ZM6.78949 3.66587L7.78696 1.52252H8.20803L9.16754 3.66587H6.78949Z" fill="#0C1E2B"/>
<path d="M14.9385 4.50802H14.7867L11.6183 1.06348H10.8037V4.97051H11.2628V1.52252H11.3939L14.583 4.97051H15.3976V1.06348H14.9385V4.50802Z" fill="#0C1E2B"/>
<path d="M16.6775 1.69848C16.6782 1.64386 16.7006 1.59175 16.7396 1.55352C16.7792 1.51391 16.8321 1.49052 16.888 1.48794C17.4402 1.46378 17.9476 1.44998 18.4998 1.44998C19.0521 1.44998 19.5594 1.44998 20.1117 1.48794C20.1664 1.49122 20.2181 1.51445 20.2569 1.55325C20.2957 1.59205 20.3189 1.64371 20.3222 1.69848C20.3222 1.81238 20.3222 1.92282 20.3222 2.04362H20.7812C20.7812 1.92282 20.7812 1.80202 20.7812 1.69848C20.7755 1.52656 20.7058 1.36297 20.5858 1.23976C20.4658 1.11654 20.3041 1.04258 20.1324 1.03235C19.5698 1.00474 19.0624 0.994385 18.4998 0.994385C17.9372 0.994385 17.4264 0.994385 16.8638 1.03235C16.6961 1.04294 16.5381 1.11434 16.4192 1.23316C16.3004 1.35198 16.229 1.51007 16.2184 1.67777C16.2184 1.79857 16.2184 1.91937 16.2012 2.02292V2.59931C16.2118 2.76757 16.2837 2.92611 16.4033 3.04501C16.5228 3.16391 16.6817 3.23495 16.85 3.24473H20.1255C20.181 3.24883 20.2334 3.27199 20.2739 3.31031C20.3129 3.34854 20.3352 3.40064 20.336 3.45527V3.99714C20.336 4.10759 20.336 4.22149 20.336 4.34229C20.3327 4.39706 20.3095 4.44872 20.2707 4.48752C20.2319 4.52631 20.1802 4.54955 20.1255 4.55283C19.5732 4.57699 19.0659 4.59079 18.5136 4.59079C17.9614 4.59079 17.454 4.59079 16.9018 4.55283C16.8463 4.54873 16.7938 4.52556 16.7534 4.48725C16.7146 4.44856 16.6912 4.397 16.6878 4.34229C16.6878 4.22839 16.6878 4.11449 16.6878 3.99714H16.2288C16.2288 4.11794 16.2288 4.23875 16.246 4.35955C16.2566 4.52725 16.328 4.68534 16.4468 4.80416C16.5657 4.92298 16.7238 4.99438 16.8915 5.00497C17.454 5.02913 17.9649 5.04293 18.5274 5.04293C19.09 5.04293 19.5974 5.04293 20.16 5.00497C20.3283 4.99519 20.4872 4.92415 20.6068 4.80525C20.7263 4.68635 20.7982 4.52781 20.8089 4.35955C20.8089 4.23875 20.8089 4.11794 20.8089 3.99714V3.44836C20.799 3.27949 20.7275 3.12011 20.6078 3.0005C20.4882 2.88088 20.3289 2.80935 20.16 2.79949H16.8846C16.8299 2.79871 16.7778 2.77638 16.7396 2.73737C16.7013 2.69693 16.6781 2.6445 16.674 2.58895V2.03672C16.6671 1.92282 16.6706 1.81238 16.6775 1.69848Z" fill="#0C1E2B"/>
<path d="M22.0577 1.06348H21.5986V4.97051H22.0577V1.06348Z" fill="#0C1E2B"/>
<path d="M26.9692 1.03235C26.4066 1.00819 25.844 0.994385 25.2814 0.994385C24.7188 0.994385 24.1562 0.994385 23.5937 1.03235C23.4248 1.04221 23.2654 1.11374 23.1458 1.23336C23.0262 1.35297 22.9546 1.51235 22.9448 1.68122C22.8999 2.57343 22.8999 3.46733 22.9448 4.35955C22.9555 4.52781 23.0273 4.68635 23.1469 4.80525C23.2664 4.92415 23.4253 4.99519 23.5937 5.00497C24.1551 5.03258 24.7177 5.04638 25.2814 5.04638C25.8452 5.04638 26.4077 5.03258 26.9692 5.00497C27.1369 4.99438 27.295 4.92298 27.4138 4.80416C27.5326 4.68533 27.604 4.52725 27.6146 4.35955C27.6595 3.46733 27.6595 2.57343 27.6146 1.68122C27.6048 1.51291 27.5338 1.35399 27.4149 1.23445C27.296 1.11491 27.1374 1.04303 26.9692 1.03235ZM27.159 4.33539C27.1549 4.39094 27.1317 4.44337 27.0934 4.4838C27.0535 4.52243 27.0005 4.54461 26.945 4.54592C26.3928 4.57354 25.8336 4.58389 25.2814 4.58389C24.7292 4.58389 24.1666 4.58389 23.6144 4.54592C23.5597 4.54515 23.5076 4.52282 23.4694 4.4838C23.4311 4.44337 23.4079 4.39094 23.4038 4.33539C23.359 3.45814 23.359 2.57918 23.4038 1.70193C23.4071 1.64716 23.4303 1.5955 23.4691 1.5567C23.5079 1.51791 23.5596 1.49467 23.6144 1.49139C24.1666 1.46723 24.7292 1.45343 25.2814 1.45343C25.8336 1.45343 26.3928 1.45343 26.945 1.49139C27.0006 1.49549 27.053 1.51866 27.0934 1.55697C27.1323 1.59566 27.1556 1.64722 27.159 1.70193C27.2004 2.57515 27.2004 3.44836 27.159 4.33193V4.33539Z" fill="#0C1E2B"/>
<path d="M29.389 0.652805C29.399 0.649106 29.41 0.649106 29.42 0.652805H29.7652H30.1103C30.1203 0.649106 30.1314 0.649106 30.1414 0.652805C30.1454 0.662767 30.1454 0.673905 30.1414 0.683868C30.1431 0.707997 30.1431 0.732218 30.1414 0.756348H30.2415C30.2415 0.732188 30.2415 0.704576 30.2415 0.680416C30.2398 0.644343 30.2247 0.610195 30.1992 0.584659C30.1736 0.559124 30.1395 0.544039 30.1034 0.542358H29.7583C29.6363 0.542358 29.5155 0.542358 29.3959 0.542358C29.3598 0.544039 29.3256 0.559124 29.3001 0.584659C29.2746 0.610195 29.2595 0.644343 29.2578 0.680416C29.2578 0.869095 29.2578 1.05893 29.2578 1.24991C29.2595 1.28598 29.2746 1.32013 29.3001 1.34566C29.3256 1.3712 29.3598 1.38628 29.3959 1.38796H29.7583H30.1034C30.1395 1.38628 30.1736 1.3712 30.1992 1.34566C30.2247 1.32013 30.2398 1.28598 30.2415 1.24991C30.2415 1.22574 30.2415 1.19813 30.2415 1.17397V1.05662C30.2398 1.02055 30.2247 0.986403 30.1992 0.960867C30.1736 0.935331 30.1395 0.920247 30.1034 0.918566H29.5995V1.03246H30.131C30.1411 1.02877 30.1521 1.02877 30.1621 1.03246C30.1661 1.04243 30.1661 1.05356 30.1621 1.06353V1.17742C30.1638 1.20155 30.1638 1.22578 30.1621 1.24991C30.1661 1.25987 30.1661 1.27101 30.1621 1.28097C30.1521 1.28467 30.1411 1.28467 30.131 1.28097H29.7859H29.4407C29.4307 1.28467 29.4197 1.28467 29.4097 1.28097C29.4056 1.27101 29.4056 1.25987 29.4097 1.24991C29.3993 1.06252 29.3993 0.874705 29.4097 0.687319C29.4036 0.683802 29.3985 0.678786 29.3948 0.672747C29.3912 0.666707 29.3892 0.659844 29.389 0.652805Z" fill="#0C1E2B"/>
<path d="M31.2253 1.06346C31.2617 1.06258 31.2963 1.04776 31.322 1.02205C31.3477 0.99635 31.3625 0.961742 31.3634 0.925402V0.687252C31.3625 0.650913 31.3477 0.616304 31.322 0.5906C31.2963 0.564897 31.2617 0.55007 31.2253 0.549194H30.4453V1.37754H30.5454V1.06346H30.787L31.2564 1.37754H31.429L30.963 1.06001L31.2253 1.06346ZM30.5351 0.966819V0.645835H31.2253C31.2355 0.642655 31.2463 0.642655 31.2564 0.645835C31.2611 0.659234 31.2611 0.673853 31.2564 0.687252V0.918499C31.2556 0.930134 31.2506 0.941084 31.2424 0.949331C31.2341 0.957577 31.2232 0.962563 31.2115 0.963368L30.5351 0.966819Z" fill="#0C1E2B"/>
<path d="M27.6145 7.97681H0.00292969V8.29779H27.6145V7.97681Z" fill="#0C1E2B"/>
<path d="M19.6555 11.335L13.9778 21.4408C13.9617 21.4727 13.9371 21.4996 13.9066 21.5183C13.8761 21.5371 13.841 21.547 13.8053 21.547C13.7695 21.547 13.7344 21.5371 13.7039 21.5183C13.6735 21.4996 13.6488 21.4727 13.6327 21.4408L7.96197 11.335H0.00292969V38.9983L6.75051 29.0927C6.76858 29.0663 6.7928 29.0448 6.82106 29.0299C6.84932 29.015 6.88078 29.0072 6.91273 29.0072C6.94467 29.0072 6.97613 29.015 7.0044 29.0299C7.03266 29.0448 7.05687 29.0663 7.07495 29.0927L13.8087 38.9983L20.5563 29.0927C20.5744 29.0663 20.5986 29.0448 20.6268 29.0299C20.6551 29.015 20.6866 29.0072 20.7185 29.0072C20.7505 29.0072 20.7819 29.015 20.8102 29.0299C20.8384 29.0448 20.8627 29.0663 20.8807 29.0927L27.6145 38.9983V11.335H19.6555Z" fill="#0C1E2B"/>
</svg>
