<svg width="100" height="100" viewBox="0 0 100 100" fill="none" xmlns="http://www.w3.org/2000/svg">
<circle cx="50" cy="50" r="50" fill="#0C1E2B"/>
<path fill-rule="evenodd" clip-rule="evenodd" d="M45.3312 0.116108C28.3377 1.75518 13.1594 12.0441 5.46793 27.1384C2.74781 32.4768 1.14059 37.6242 0.261151 43.8139C-0.128668 46.5587 -0.0721131 53.6597 0.36428 56.72C1.13922 62.1546 2.74272 67.3043 5.20022 72.2515C10.0759 82.0662 17.8648 89.8484 27.7068 94.7388C43.6614 102.666 62.5169 101.576 77.3981 91.8661C83.2166 88.0693 88.731 82.4407 92.4956 76.4558C93.9263 74.181 96.0865 69.7589 97.0677 67.0967C98.0563 64.4138 99.2092 59.7576 99.6368 56.72C100.07 53.643 100.129 46.5247 99.7428 43.8139C98.5876 35.6934 96.0106 28.78 91.7322 22.3234C89.9126 19.5775 88.0954 17.3622 85.5638 14.8035C77.7588 6.91509 68.0499 2.02269 56.9483 0.383812C54.5544 0.0304579 47.8267 -0.124611 45.3312 0.116108ZM80.0681 26.1364C80.703 26.5263 81.3119 27.5477 81.3119 28.2227C81.3119 28.7356 71.571 71.8205 71.2982 72.5143C70.8199 73.7308 69.0164 74.6065 67.7241 74.25C67.3577 74.1489 63.6701 71.7693 59.5295 68.9618C55.3886 66.1543 51.9417 63.8574 51.8695 63.8574C51.7973 63.8574 50.1366 65.379 48.1789 67.2384C43.668 71.5235 43.7209 71.4838 42.5355 71.4838C41.7262 71.4838 41.4786 71.387 40.9109 70.8483C40.3068 70.2749 39.9786 69.437 37.5609 62.2931C36.0867 57.9373 34.7822 54.2719 34.6621 54.1479C34.5419 54.0242 31.1414 53.0273 27.1052 51.933C20.4965 50.1412 19.7133 49.8862 19.2286 49.3688C18.8916 49.0088 18.6905 48.5772 18.6905 48.2137C18.6905 46.827 18.2042 47.0335 39.336 39.4401C50.099 35.5723 63.0441 30.9146 68.1027 29.0894C73.1614 27.2641 77.4764 25.7242 77.6916 25.6673C78.3016 25.5059 79.392 25.7212 80.0681 26.1364ZM53.438 43.4273C44.7265 48.4251 37.5288 52.6244 37.4431 52.7594C37.3573 52.8943 37.2859 53.2316 37.2841 53.5091C37.2802 54.1865 41.4798 66.4617 41.7459 66.5505C41.9994 66.6348 42.0588 66.2912 42.5696 61.8042C42.7901 59.8683 43.0126 58.0872 43.0645 57.8463C43.1267 57.5557 47.6869 53.7109 56.6091 46.4262C64.0069 40.3859 70.1256 35.3473 70.2062 35.2291C70.4731 34.8377 70.2591 34.4282 69.7644 34.3842C69.4295 34.3543 64.319 37.185 53.438 43.4273Z" fill="#F8E08E"/>
</svg>
