<svg width="30" height="28" viewBox="0 0 30 28" fill="none" xmlns="http://www.w3.org/2000/svg">
<path fill-rule="evenodd" clip-rule="evenodd" d="M14.7889 6.4445C6.94076 9.47317 0.454089 11.994 0.374098 12.0464C0.180276 12.1734 0.000235226 12.4781 6.45686e-07 12.6796C-0.000351225 12.9274 0.143153 13.2186 0.330348 13.3501C0.422714 13.4149 2.04208 14.042 3.92899 14.7436C5.81589 15.4452 7.38834 16.0492 7.42335 16.0859C7.4583 16.1225 8.0749 18.0526 8.79354 20.3749C9.51217 22.6973 10.1412 24.6863 10.1913 24.7949C10.2415 24.9035 10.3639 25.042 10.4632 25.1026C10.6668 25.2267 11.0835 25.2488 11.2762 25.1457C11.3456 25.1085 12.2477 24.3879 13.2809 23.5442C15.5372 21.702 15.4616 21.7584 15.7671 21.6898C16.2498 21.5813 16.3439 21.6366 19.1806 23.6954C24.1583 27.308 23.7956 27.0605 24.1104 27.0605C24.4364 27.0605 24.6666 26.9167 24.8226 26.6159C24.9781 26.316 30.0441 1.84057 29.9997 1.60388C29.9321 1.24351 29.5542 0.93093 29.1922 0.935973C29.1186 0.93697 22.6371 3.41578 14.7889 6.4445ZM23.5047 6.39982C23.5434 6.43852 23.5751 6.51312 23.5751 6.56561C23.5751 6.61809 21.4185 8.66469 18.7825 11.1135C12.3713 17.0699 12.1175 17.3109 11.9467 17.6023C11.7207 17.988 11.634 18.3767 11.4326 19.9058C11.327 20.7072 11.2114 21.3701 11.1641 21.4452C11.0781 21.5817 10.8349 21.6221 10.6821 21.5253C10.6386 21.4977 10.2583 20.2775 9.83695 18.8138C9.02301 15.9863 8.97627 15.7388 9.17139 15.2888C9.22352 15.1685 9.35184 14.9893 9.45652 14.8906C9.69139 14.669 23.2172 6.33126 23.3434 6.33021C23.3935 6.3298 23.466 6.36111 23.5047 6.39982Z" fill="#0C1E2B"/>
</svg>
