<svg width="31" height="30" viewBox="0 0 31 30" fill="none" xmlns="http://www.w3.org/2000/svg">
<path fill-rule="evenodd" clip-rule="evenodd" d="M14.4141 0.00969837C12.146 0.230427 10.4357 0.719865 8.58074 1.67886C5.74892 3.14295 3.46228 5.47271 2.04845 8.33443C1.50528 9.43391 1.24929 10.1078 0.9654 11.1861C0.607495 12.545 0.503289 13.3712 0.500058 14.8747C0.498472 15.6233 0.52937 16.4357 0.571487 16.7518C0.891739 19.1552 1.64655 21.2264 2.90894 23.1656L3.3297 23.8119L2.39502 26.5672C1.88093 28.0827 1.46845 29.3307 1.47838 29.3406C1.48837 29.3505 2.77413 28.9506 4.33569 28.4517C5.8973 27.9529 7.19582 27.5448 7.22137 27.5448C7.24692 27.5448 7.48799 27.6814 7.75708 27.8484C8.02617 28.0155 8.58996 28.3164 9.00995 28.5171C12.8078 30.3321 17.1491 30.4874 21.0379 28.9475C25.4439 27.2026 28.8281 23.3855 30.0361 18.7981C30.4061 17.393 30.5 16.6227 30.5 14.9921C30.5 13.3614 30.4061 12.5912 30.0361 11.1861C28.619 5.80442 24.2995 1.6212 18.849 0.351848C17.9331 0.138569 16.9803 0.0305218 15.8238 0.00887716C15.1777 -0.00326495 14.5433 -0.002913 14.4141 0.00969837ZM10.8316 6.97018C10.9288 7.02056 11.0651 7.1634 11.1345 7.28751C11.3096 7.60098 12.7376 11.0356 12.7792 11.2433C12.8324 11.5091 12.5721 11.9609 11.9883 12.6165C11.379 13.3005 11.248 13.5201 11.3022 13.7668C11.4007 14.2144 12.7592 16.0135 13.5962 16.8046C14.895 18.0323 16.8582 19.1982 17.7329 19.2612C18.1827 19.2936 18.3467 19.1665 19.0346 18.252C19.3467 17.8372 19.6796 17.4203 19.7744 17.3257C20.0009 17.0995 20.3373 17.0515 20.7144 17.1917C21.1983 17.3715 24.156 18.8098 24.3637 18.9663L24.5626 19.1161L24.5297 19.7376C24.4455 21.3332 23.8851 22.1618 22.4028 22.8821C20.9935 23.567 19.8904 23.5483 17.7307 22.8029C14.8333 21.8028 13.2954 20.8476 11.2114 18.7535C10.1687 17.7057 9.42766 16.8199 8.58009 15.608C7.18348 13.6109 6.64788 12.0687 6.80731 10.5036C6.93512 9.24867 7.37427 8.32229 8.26119 7.43668C8.69023 7.00819 9.25167 6.8318 10.0966 6.85996C10.4551 6.87187 10.7179 6.91129 10.8316 6.97018Z" fill="#FFF3CA"/>
</svg>
