<svg width="100" height="100" viewBox="0 0 100 100" fill="none" xmlns="http://www.w3.org/2000/svg">
<circle cx="50" cy="50" r="50" fill="#0C1E2B"/>
<path fill-rule="evenodd" clip-rule="evenodd" d="M45.2532 0.121413C29.6067 1.74844 15.8941 10.2636 7.56401 23.5256C-4.24667 42.3291 -2.04236 67.1636 12.8897 83.5231C21.1534 92.577 31.4883 97.9898 43.882 99.7552C46.1958 100.085 53.8852 100.081 56.3009 99.7485C67.6201 98.1922 77.7575 93.1719 85.4674 85.3045C87.9977 82.7225 88.5367 82.1051 90.2151 79.8667C95.2165 73.196 98.491 65.064 99.7546 56.1764C100.082 53.8739 100.082 46.1489 99.7544 43.8475C98.9115 37.9228 97.379 32.8748 94.9202 27.9239C92.315 22.6784 89.6417 18.9388 85.4805 14.7194C77.7614 6.89213 68.0966 2.02985 56.9854 0.383647C54.5863 0.0280659 47.6427 -0.126926 45.2532 0.121413ZM57.6699 19.9373C75.171 24.1084 85.1042 41.7884 79.4754 58.7487C78.0219 63.1282 75.7278 66.7889 72.248 70.2817C67.8439 74.7021 63.083 77.2827 56.8877 78.6082C55.1914 78.971 54.2044 79.0489 51.216 79.0554C46.2586 79.0661 43.1785 78.434 38.8073 76.5091C37.732 76.0355 36.718 75.65 36.5535 75.6522C36.3892 75.6543 32.8223 76.5641 28.6273 77.6741C24.4322 78.7839 20.9786 79.6783 20.9526 79.6612C20.9264 79.6444 21.855 76.1618 23.0161 71.9222L25.1271 64.2141L24.2069 62.3479C22.128 58.132 21.2162 54.1232 21.2235 49.2292C21.2354 40.852 24.1928 33.7419 30.0958 27.8982C34.7343 23.3064 40.5936 20.4326 47.4023 19.4103C47.725 19.3619 49.7052 19.3506 51.8027 19.385C55.0495 19.4385 55.9217 19.5206 57.6699 19.9373ZM48.9669 24.4084C39.3893 25.0937 30.6253 31.9525 27.5591 41.162C26.5675 44.1401 26.2914 45.8975 26.2914 49.2292C26.2914 54.2913 27.2528 57.6776 30.106 62.6634L30.5705 63.4749L29.3486 67.9251C28.6766 70.3725 28.1636 72.4118 28.2086 72.4568C28.2535 72.5019 30.338 71.9977 32.8407 71.3365L37.3913 70.1343L39.7566 71.3165C43.651 73.2633 47.0364 74.0792 51.2305 74.0815C61.743 74.0874 71.3362 67.1503 74.6645 57.1361C75.6709 54.1081 75.9183 52.5492 75.9193 49.2292C75.9199 46.8356 75.8284 45.7624 75.4845 44.1411C73.3639 34.1372 65.4892 26.471 55.5116 24.6966C53.3906 24.3195 51.4202 24.2328 48.9669 24.4084ZM43.0446 35.7887C43.663 36.4835 46.1814 42.7401 46.0513 43.2587C45.9913 43.4978 45.4126 44.3845 44.7654 45.2291C44.1183 46.0738 43.5887 46.9074 43.5887 47.0816C43.5887 47.4509 45.1511 49.7693 46.365 51.2014C47.6789 52.7511 50.1529 54.6382 52.2606 55.6979C54.8997 57.025 55.0303 57.0087 56.5393 55.1639C58.4182 52.8666 58.5923 52.7093 59.0912 52.8549C59.6908 53.0298 65.2848 55.6412 65.8617 56.0154C66.2977 56.2982 66.3211 56.4038 66.2187 57.625C66.1584 58.344 65.9607 59.3035 65.7792 59.7573C65.3722 60.7753 63.8956 62.1358 62.4013 62.8702C61.3684 63.3777 61.1187 63.417 58.9412 63.4135C56.7783 63.4102 56.4486 63.3581 54.7363 62.7497C51.9037 61.7432 50.1451 60.8839 48.017 59.4663C43.8953 56.7207 39.0384 51.2282 37.0371 47.0493C36.1707 45.2405 35.8983 43.8638 35.9986 41.8023C36.0929 39.8633 36.5938 38.5823 37.8855 36.9758C38.927 35.6807 39.6289 35.3447 41.3055 35.3392C42.4584 35.3353 42.6955 35.3966 43.0446 35.7887Z" fill="#F8E08E"/>
</svg>
